<?xml version="1.0" encoding="utf-8"?>
<!-- Generator: Adobe Illustrator 16.0.0, SVG Export Plug-In . SVG Version: 6.00 Build 0)  -->
<!DOCTYPE svg PUBLIC "-//W3C//DTD SVG 1.1//EN" "http://www.w3.org/Graphics/SVG/1.1/DTD/svg11.dtd">
<svg version="1.1" id="Layer_1" xmlns="http://www.w3.org/2000/svg" xmlns:xlink="http://www.w3.org/1999/xlink" x="0px" y="0px"
	 width="50px" height="50px" viewBox="0 0 50 50" enable-background="new 0 0 50 50" xml:space="preserve">
<ellipse stroke="#000000" stroke-miterlimit="10" cx="24.497" cy="15.588" rx="3.365" ry="3.45"/>
<polygon stroke="#000000" stroke-miterlimit="10" points="27.862,28.236 21.132,28.236 23.499,19.038 25.458,19.038 "/>
<line stroke="#000000" stroke-miterlimit="10" x1="31.435" y1="26.156" x2="25.485" y2="19.358"/>
<line stroke="#000000" stroke-miterlimit="10" x1="17.409" y1="26.156" x2="23.358" y2="19.358"/>
<polygon stroke="#000000" stroke-miterlimit="10" points="26.129,37.82 25.485,37.862 25.485,27.896 26.129,27.854 "/>
<polygon stroke="#000000" stroke-miterlimit="10" points="23.68,37.82 23.036,37.862 23.036,27.896 23.68,27.854 "/>
<path stroke="#000000" stroke-miterlimit="10" d="M20.832,15.515c0.005,0.297,0.193,0.838,0.3,1.231
	c-0.053-0.459-0.216-1.384-0.518-1.625c-0.448-0.358-0.884,0.31-0.948,0.851c-0.065,0.549-0.186,1.191-0.187,1.775
	c-0.001,0.524-0.112,0.726-0.985,1.818c0.997-0.003,2.577-1.375,2.638-2.818"/>
<path stroke="#000000" stroke-miterlimit="10" d="M28.161,15.514c-0.006,0.297-0.193,0.838-0.301,1.231
	c0.055-0.459,0.217-1.384,0.52-1.625c0.447-0.358,0.883,0.31,0.947,0.851c0.064,0.549,0.186,1.191,0.188,1.775
	c0,0.524,0.111,0.726,0.984,1.818c-0.996-0.004-2.576-1.375-2.639-2.819"/>
</svg>
